<svg width="402" height="491" viewBox="0 0 402 491" fill="none" xmlns="http://www.w3.org/2000/svg">
<path d="M243.032 201.574C267.067 201.574 287.153 220.258 287.153 244.031C287.153 267.804 267.067 286.487 243.032 286.487C218.997 286.487 198.911 267.804 198.911 244.031C198.911 220.258 218.997 201.575 243.032 201.574Z" stroke="white" stroke-width="15"/>
<ellipse cx="354.894" cy="44.6114" rx="46.6089" ry="44.6114" fill="white"/>
<ellipse cx="41.948" cy="181.283" rx="41.948" ry="40.2834" fill="white"/>
<ellipse cx="242.699" cy="451.774" rx="40.9493" ry="38.9518" fill="white"/>
<ellipse cx="201.75" cy="115.191" rx="27.2995" ry="25.9678" fill="white"/>
<rect x="237.04" y="278.988" width="13.3168" height="157.139" fill="white"/>
<rect x="203.864" y="227.055" width="13.3168" height="165.922" transform="rotate(108 203.864 227.055)" fill="white"/>
<rect x="268.548" y="213.846" width="13.3168" height="173.119" transform="rotate(-150 268.548 213.846)" fill="white"/>
<rect x="237.26" y="202.368" width="13.3168" height="89.5448" transform="rotate(163 237.26 202.368)" fill="white"/>
</svg>
